<svg xmlns="http://www.w3.org/2000/svg" baseProfile="full" version="1.1" width="1860px" height="795px" style="fill: none; width: 1860px; height: 795px;"><path d="" style="stroke-width: 15; stroke-linecap: round; stroke-linejoin: round; stroke: rgb(106, 106, 106); fill: none;"/><path d="" style="stroke-width: 15; stroke-linecap: round; stroke-linejoin: round; stroke: rgb(74, 74, 74); fill: none;"/><path d="M540,600 L540,600 L540,420 L660,420 L720,360 L780,360 L840,420 L960,420 L960,600 L540,600 M750,585 A75,75 0 0,0 825,510 A75,75 0 0,0 750,435 A75,75 0 0,0 675,510 A75,75 0 0,0 750,585 M570,420 L570,420 L570,420 L570,405 L600,405 L600,420 " style="stroke-width: 2; stroke-linecap: round; stroke-linejoin: round; stroke: rgb(127, 127, 127); fill: none;"/></svg>